<svg xmlns="http://www.w3.org/2000/svg" width="68" height="68" viewBox="0 0 68 68">
  <g id="Group_1930" data-name="Group 1930" transform="translate(-278 -1599)">
    <g id="Group_1929" data-name="Group 1929">
      <rect id="Rectangle_1947" data-name="Rectangle 1947" width="68" height="68" rx="12" transform="translate(278 1599)" fill="rgba(102,153,242,0.1)"/>
      <g id="Слой_x0020_1" transform="translate(296.99 1618)">
        <path id="Path_14894" data-name="Path 14894" d="M13.089,15.374V5.507a1.236,1.236,0,1,1,2.467-.057v8.777h5.45c2.264,0,1.759,2.467.4,2.467H14.294a1.321,1.321,0,0,1-.872-.39,1.416,1.416,0,0,1-.333-.929ZM14.06,0h1.065A17.021,17.021,0,0,1,19,.631c.234.064.412.123.653.207a14.909,14.909,0,0,1,4.026,2.227,14.445,14.445,0,0,1,3.053,3.2l.367.55a11.974,11.974,0,0,1,.94,1.7c.183.444.36.79.52,1.259a14.921,14.921,0,0,1,.824,4.277v1.065a17.021,17.021,0,0,1-.631,3.873,13.725,13.725,0,0,1-1.7,3.639,14.357,14.357,0,0,1-1.123,1.516c-.172.213-.257.286-.437.481-.159.171-.222.282-.4.46s-.314.259-.489.429a14.152,14.152,0,0,1-2.569,1.906,14.842,14.842,0,0,1-2.427,1.129,12.8,12.8,0,0,1-1.37.408,13.976,13.976,0,0,1-3.944.416,14.408,14.408,0,0,1-9.536-3.887c-.171-.159-.282-.222-.46-.4a16.933,16.933,0,0,1-2.334-3.058A14.456,14.456,0,0,1,.01,14.284,14.3,14.3,0,0,1,2.337,6.744c.135-.221.209-.307.346-.514.151-.23.233-.315.392-.526.146-.194.245-.3.384-.476L4.3,4.288A15.335,15.335,0,0,1,9.783.824,14.921,14.921,0,0,1,14.06,0Z" fill="#6699f2" fill-rule="evenodd"/>
      </g>
    </g>
  </g>
</svg>
